<?xml version="1.0" encoding="utf-8" standalone="no"?>
<!DOCTYPE svg PUBLIC "-//W3C//DTD SVG 1.1//EN"
  "http://www.w3.org/Graphics/SVG/1.1/DTD/svg11.dtd">
<!-- Created with matplotlib (https://matplotlib.org/) -->
<svg height="144pt" version="1.1" viewBox="0 0 216 144" width="216pt" xmlns="http://www.w3.org/2000/svg" xmlns:xlink="http://www.w3.org/1999/xlink">
 <defs>
  <style type="text/css">
*{stroke-linecap:butt;stroke-linejoin:round;}
  </style>
 </defs>
 <g id="figure_1">
  <g id="patch_1">
   <path d="M 0 144 
L 216 144 
L 216 0 
L 0 0 
z
" style="fill:#ffffff;"/>
  </g>
  <g id="axes_1">
   <g id="patch_2">
    <path d="M 61.650652 104.488647 
L 203.799898 104.488647 
L 203.799898 25.10218 
L 61.650652 25.10218 
z
" style="fill:#ffffff;"/>
   </g>
   <g id="matplotlib.axis_1">
    <g id="xtick_1">
     <g id="line2d_1">
      <defs>
       <path d="M 0 0 
L 0 3.5 
" id="mb4f7ea68c9" style="stroke:#000000;stroke-width:0.8;"/>
      </defs>
      <g>
       <use style="stroke:#000000;stroke-width:0.8;" x="68.111981" xlink:href="#mb4f7ea68c9" y="104.488647"/>
      </g>
     </g>
     <g id="text_1">
      <!-- $0$ -->
      <defs>
       <path d="M 42 31.84375 
C 42 37.96875 41.90625 48.421875 37.703125 56.453125 
C 34 63.484375 28.09375 66 22.90625 66 
C 18.09375 66 12 63.78125 8.203125 56.5625 
C 4.203125 49.015625 3.796875 39.671875 3.796875 31.84375 
C 3.796875 26.109375 3.90625 17.375 7 9.734375 
C 11.296875 -0.609375 19 -2 22.90625 -2 
C 27.5 -2 34.5 -0.109375 38.59375 9.4375 
C 41.59375 16.375 42 24.5 42 31.84375 
z
M 22.90625 -0.40625 
C 16.5 -0.40625 12.703125 5.125 11.296875 12.75 
C 10.203125 18.6875 10.203125 27.328125 10.203125 32.953125 
C 10.203125 40.6875 10.203125 47.109375 11.5 53.234375 
C 13.40625 61.78125 19 64.390625 22.90625 64.390625 
C 27 64.390625 32.296875 61.671875 34.203125 53.4375 
C 35.5 47.71875 35.59375 40.984375 35.59375 32.953125 
C 35.59375 26.421875 35.59375 18.375 34.40625 12.453125 
C 32.296875 1.5 26.40625 -0.40625 22.90625 -0.40625 
z
" id="CMR17-48"/>
      </defs>
      <g transform="translate(65.621313 118.407145)scale(0.1 -0.1)">
       <use transform="scale(0.996264)" xlink:href="#CMR17-48"/>
      </g>
     </g>
    </g>
    <g id="xtick_2">
     <g id="line2d_2">
      <g>
       <use style="stroke:#000000;stroke-width:0.8;" x="133.377934" xlink:href="#mb4f7ea68c9" y="104.488647"/>
      </g>
     </g>
     <g id="text_2">
      <!-- $50$ -->
      <defs>
       <path d="M 11.40625 58.59375 
C 12.40625 58.1875 16.5 56.890625 20.703125 56.890625 
C 30 56.890625 35.09375 61.890625 38 64.6875 
C 38 65.484375 38 66 37.40625 66 
C 37.296875 66 37.09375 66 36.296875 65.59375 
C 32.796875 64.09375 28.703125 63 23.703125 63 
C 20.703125 63 16.203125 63.359375 11.296875 65.484375 
C 10.203125 66 10 66 9.90625 66 
C 9.40625 66 9.296875 65.890625 9.296875 63.90625 
L 9.296875 34.859375 
C 9.296875 33.015625 9.296875 32.5 10.296875 32.5 
C 10.796875 32.5 11 32.703125 11.5 33.421875 
C 14.703125 38.046875 19.09375 40 24.09375 40 
C 27.59375 40 35.09375 37.734375 35.09375 20.203125 
C 35.09375 16.984375 35.09375 11.1875 32.09375 6.59375 
C 29.59375 2.484375 25.703125 0.390625 21.40625 0.390625 
C 14.796875 0.390625 8.09375 4.984375 6.296875 12.6875 
C 6.703125 12.59375 7.5 12.390625 7.90625 12.390625 
C 9.203125 12.390625 11.703125 13.09375 11.703125 16.1875 
C 11.703125 18.890625 9.796875 20 7.90625 20 
C 5.59375 20 4.09375 18.59375 4.09375 15.796875 
C 4.09375 7.09375 11 -2 21.59375 -2 
C 31.90625 -2 41.703125 6.890625 41.703125 19.796875 
C 41.703125 32.09375 33.90625 41.59375 24.203125 41.59375 
C 19.09375 41.59375 14.796875 39.6875 11.40625 36 
z
" id="CMR17-53"/>
      </defs>
      <g transform="translate(128.396599 118.407145)scale(0.1 -0.1)">
       <use transform="scale(0.996264)" xlink:href="#CMR17-53"/>
       <use transform="translate(45.690477 0)scale(0.996264)" xlink:href="#CMR17-48"/>
      </g>
     </g>
    </g>
    <g id="xtick_3">
     <g id="line2d_3">
      <g>
       <use style="stroke:#000000;stroke-width:0.8;" x="198.643888" xlink:href="#mb4f7ea68c9" y="104.488647"/>
      </g>
     </g>
     <g id="text_3">
      <!-- $100$ -->
      <defs>
       <path d="M 26.59375 63.796875 
C 26.59375 65.890625 26.5 66 25.09375 66 
C 21.203125 61.359375 15.296875 59.890625 9.703125 59.6875 
C 9.40625 59.6875 8.90625 59.6875 8.796875 59.5 
C 8.703125 59.296875 8.703125 59.09375 8.703125 57 
C 11.796875 57 17 57.59375 21 59.984375 
L 21 7.296875 
C 21 3.796875 20.796875 2.59375 12.203125 2.59375 
L 9.203125 2.59375 
L 9.203125 0 
C 14 0.09375 19 0.1875 23.796875 0.1875 
C 28.59375 0.1875 33.59375 0.09375 38.40625 0 
L 38.40625 2.59375 
L 35.40625 2.59375 
C 26.796875 2.59375 26.59375 3.6875 26.59375 7.296875 
z
" id="CMR17-49"/>
      </defs>
      <g transform="translate(191.171885 118.407145)scale(0.1 -0.1)">
       <use transform="scale(0.996264)" xlink:href="#CMR17-49"/>
       <use transform="translate(45.690477 0)scale(0.996264)" xlink:href="#CMR17-48"/>
       <use transform="translate(91.380954 0)scale(0.996264)" xlink:href="#CMR17-48"/>
      </g>
     </g>
    </g>
    <g id="text_4">
     <!-- $t$ -->
     <defs>
      <path d="M 20.09375 40.09375 
L 29.296875 40.09375 
C 31.203125 40.09375 32.203125 40.09375 32.203125 41.890625 
C 32.203125 43 31.59375 43 29.59375 43 
L 20.796875 43 
L 24.5 57.25 
C 24.90625 58.625 24.90625 58.8125 24.90625 59.5 
C 24.90625 61.09375 23.59375 62 22.296875 62 
C 21.5 62 19.203125 61.6875 18.40625 58.53125 
L 14.5 43 
L 5.09375 43 
C 3.09375 43 2.203125 43 2.203125 41.09375 
C 2.203125 40.09375 2.90625 40.09375 4.796875 40.09375 
L 13.703125 40.09375 
L 7.09375 13.765625 
C 6.296875 10.265625 6 9.265625 6 7.96875 
C 6 3.28125 9.296875 -1 14.90625 -1 
C 25 -1 30.40625 13.5625 30.40625 14.265625 
C 30.40625 14.859375 30 15.15625 29.40625 15.15625 
C 29.203125 15.15625 28.796875 15.15625 28.59375 14.75 
C 28.5 14.65625 28.40625 14.5625 27.703125 12.96875 
C 25.59375 7.96875 21 1 15.203125 1 
C 12.203125 1 12 3.484375 12 5.6875 
C 12 5.78125 12 7.671875 12.296875 8.875 
z
" id="CMMI12-116"/>
     </defs>
     <g transform="translate(130.926463 131.262822)scale(0.1 -0.1)">
      <use transform="scale(0.996264)" xlink:href="#CMMI12-116"/>
     </g>
    </g>
   </g>
   <g id="matplotlib.axis_2">
    <g id="ytick_1">
     <g id="line2d_4">
      <defs>
       <path d="M 0 0 
L -3.5 0 
" id="meec3ee5249" style="stroke:#000000;stroke-width:0.8;"/>
      </defs>
      <g>
       <use style="stroke:#000000;stroke-width:0.8;" x="61.650652" xlink:href="#meec3ee5249" y="100.917582"/>
      </g>
     </g>
     <g id="text_5">
      <!-- $0$ -->
      <g transform="translate(49.669316 104.376831)scale(0.1 -0.1)">
       <use transform="scale(0.996264)" xlink:href="#CMR17-48"/>
      </g>
     </g>
    </g>
    <g id="ytick_2">
     <g id="line2d_5">
      <g>
       <use style="stroke:#000000;stroke-width:0.8;" x="61.650652" xlink:href="#meec3ee5249" y="69.741785"/>
      </g>
     </g>
     <g id="text_6">
      <!-- $100000$ -->
      <g transform="translate(24.76264 73.201034)scale(0.1 -0.1)">
       <use transform="scale(0.996264)" xlink:href="#CMR17-49"/>
       <use transform="translate(45.690477 0)scale(0.996264)" xlink:href="#CMR17-48"/>
       <use transform="translate(91.380954 0)scale(0.996264)" xlink:href="#CMR17-48"/>
       <use transform="translate(137.071431 0)scale(0.996264)" xlink:href="#CMR17-48"/>
       <use transform="translate(182.761908 0)scale(0.996264)" xlink:href="#CMR17-48"/>
       <use transform="translate(228.452386 0)scale(0.996264)" xlink:href="#CMR17-48"/>
      </g>
     </g>
    </g>
    <g id="ytick_3">
     <g id="line2d_6">
      <g>
       <use style="stroke:#000000;stroke-width:0.8;" x="61.650652" xlink:href="#meec3ee5249" y="38.565989"/>
      </g>
     </g>
     <g id="text_7">
      <!-- $200000$ -->
      <defs>
       <path d="M 41.703125 15.46875 
L 39.90625 15.46875 
C 38.90625 8.390625 38.09375 7.1875 37.703125 6.59375 
C 37.203125 5.796875 30 5.796875 28.59375 5.796875 
L 9.40625 5.796875 
C 13 9.6875 20 16.765625 28.5 24.9375 
C 34.59375 30.71875 41.703125 37.5 41.703125 47.390625 
C 41.703125 59.1875 32.296875 66 21.796875 66 
C 10.796875 66 4.09375 56.296875 4.09375 47.296875 
C 4.09375 43.390625 7 42.890625 8.203125 42.890625 
C 9.203125 42.890625 12.203125 43.484375 12.203125 46.984375 
C 12.203125 50.09375 9.59375 51 8.203125 51 
C 7.59375 51 7 50.890625 6.59375 50.6875 
C 8.5 59.1875 14.296875 63.390625 20.40625 63.390625 
C 29.09375 63.390625 34.796875 56.5 34.796875 47.390625 
C 34.796875 38.703125 29.703125 31.21875 24 24.734375 
L 4.09375 2.296875 
L 4.09375 0 
L 39.296875 0 
z
" id="CMR17-50"/>
      </defs>
      <g transform="translate(24.76264 42.025238)scale(0.1 -0.1)">
       <use transform="scale(0.996264)" xlink:href="#CMR17-50"/>
       <use transform="translate(45.690477 0)scale(0.996264)" xlink:href="#CMR17-48"/>
       <use transform="translate(91.380954 0)scale(0.996264)" xlink:href="#CMR17-48"/>
       <use transform="translate(137.071431 0)scale(0.996264)" xlink:href="#CMR17-48"/>
       <use transform="translate(182.761908 0)scale(0.996264)" xlink:href="#CMR17-48"/>
       <use transform="translate(228.452386 0)scale(0.996264)" xlink:href="#CMR17-48"/>
      </g>
     </g>
    </g>
    <g id="text_8">
     <!-- $\mathbf{x}(t)$ -->
     <defs>
      <path d="M 33.703125 24.46875 
L 45.296875 37.609375 
C 46.40625 38.90625 47.296875 39.6875 55.59375 39.6875 
L 55.59375 44 
C 50 43.796875 49.796875 43.796875 46.40625 43.796875 
C 43.5 43.796875 39.203125 43.796875 36.40625 44 
L 36.40625 39.6875 
C 38.296875 39.6875 40.40625 39.203125 40.40625 38.5 
C 40.40625 38.3125 39.90625 37.609375 39.703125 37.421875 
L 31 27.71875 
L 21.09375 39.6875 
L 25.296875 39.6875 
L 25.296875 44 
C 23 43.796875 16.203125 43.796875 13.5 43.796875 
C 10.5 43.796875 5.09375 43.796875 2.296875 44 
L 2.296875 39.6875 
L 9.40625 39.6875 
L 25 20.90625 
L 12 6.375 
C 10.796875 4.984375 10.09375 4.296875 1.796875 4.296875 
L 1.796875 0 
C 7.796875 0.1875 8 0.1875 11.09375 0.1875 
C 14 0.1875 18.203125 0.1875 21 0 
L 21 4.296875 
C 19.09375 4.296875 17 4.78125 17 5.484375 
C 17 5.578125 17 5.671875 17.703125 6.46875 
L 27.703125 17.640625 
L 38.796875 4.296875 
L 34.59375 4.296875 
L 34.59375 0 
C 37 0.1875 43.703125 0.1875 46.5 0.1875 
C 49.5 0.1875 54.796875 0.1875 57.59375 0 
L 57.59375 4.296875 
L 50.59375 4.296875 
z
" id="CMBX12-120"/>
      <path d="M 30.59375 -24.40625 
C 30.59375 -24.3125 30.59375 -24.109375 30.296875 -23.8125 
C 25.703125 -19.109375 13.40625 -6.296875 13.40625 24.9375 
C 13.40625 56.171875 25.5 68.875 30.40625 73.890625 
C 30.40625 73.984375 30.59375 74.1875 30.59375 74.484375 
C 30.59375 74.796875 30.296875 75 29.90625 75 
C 28.796875 75 20.296875 67.578125 15.40625 56.5625 
C 10.40625 45.453125 9 34.65625 9 25.046875 
C 9 17.828125 9.703125 5.625 15.703125 -7.296875 
C 20.5 -17.703125 28.703125 -25 29.90625 -25 
C 30.40625 -25 30.59375 -24.8125 30.59375 -24.40625 
z
" id="CMR17-40"/>
      <path d="M 26.296875 24.9375 
C 26.296875 32.140625 25.59375 44.359375 19.59375 57.265625 
C 14.796875 67.6875 6.59375 75 5.40625 75 
C 5.09375 75 4.703125 74.890625 4.703125 74.390625 
C 4.703125 74.1875 4.796875 74.09375 4.90625 73.890625 
C 9.703125 68.875 21.90625 56.171875 21.90625 25.046875 
C 21.90625 -6.1875 9.796875 -18.90625 4.90625 -23.90625 
C 4.796875 -24.109375 4.703125 -24.203125 4.703125 -24.40625 
C 4.703125 -24.90625 5.09375 -25 5.40625 -25 
C 6.5 -25 15 -17.609375 19.90625 -6.59375 
C 24.90625 4.515625 26.296875 15.328125 26.296875 24.9375 
z
" id="CMR17-41"/>
     </defs>
     <g transform="translate(18.27198 73.491965)rotate(-90)scale(0.1 -0.1)">
      <use transform="scale(0.996264)" xlink:href="#CMBX12-120"/>
      <use transform="translate(59.153176 0)scale(0.996264)" xlink:href="#CMR17-40"/>
      <use transform="translate(94.433943 0)scale(0.996264)" xlink:href="#CMMI12-116"/>
      <use transform="translate(129.660274 0)scale(0.996264)" xlink:href="#CMR17-41"/>
     </g>
    </g>
   </g>
   <g id="line2d_7">
    <defs>
     <path d="M 0 1.5 
C 0.397805 1.5 0.77937 1.341951 1.06066 1.06066 
C 1.341951 0.77937 1.5 0.397805 1.5 0 
C 1.5 -0.397805 1.341951 -0.77937 1.06066 -1.06066 
C 0.77937 -1.341951 0.397805 -1.5 0 -1.5 
C -0.397805 -1.5 -0.77937 -1.341951 -1.06066 -1.06066 
C -1.341951 -0.77937 -1.5 -0.397805 -1.5 0 
C -1.5 0.397805 -1.341951 0.77937 -1.06066 1.06066 
C -0.77937 1.341951 -0.397805 1.5 0 1.5 
z
" id="mea8244864c" style="stroke:#000000;"/>
    </defs>
    <g clip-path="url(#p56194c337a)">
     <use style="stroke:#000000;" x="68.111981" xlink:href="#mea8244864c" y="100.880171"/>
     <use style="stroke:#000000;" x="69.4173" xlink:href="#mea8244864c" y="100.866142"/>
     <use style="stroke:#000000;" x="70.722619" xlink:href="#mea8244864c" y="100.848372"/>
     <use style="stroke:#000000;" x="72.027938" xlink:href="#mea8244864c" y="100.836836"/>
     <use style="stroke:#000000;" x="73.333257" xlink:href="#mea8244864c" y="100.792879"/>
     <use style="stroke:#000000;" x="74.638576" xlink:href="#mea8244864c" y="100.761703"/>
     <use style="stroke:#000000;" x="75.943895" xlink:href="#mea8244864c" y="100.707769"/>
     <use style="stroke:#000000;" x="77.249214" xlink:href="#mea8244864c" y="100.583065"/>
     <use style="stroke:#000000;" x="78.554534" xlink:href="#mea8244864c" y="100.389152"/>
     <use style="stroke:#000000;" x="79.859853" xlink:href="#mea8244864c" y="100.207709"/>
     <use style="stroke:#000000;" x="81.165172" xlink:href="#mea8244864c" y="100.207709"/>
     <use style="stroke:#000000;" x="82.470491" xlink:href="#mea8244864c" y="99.286464"/>
     <use style="stroke:#000000;" x="83.77581" xlink:href="#mea8244864c" y="98.925137"/>
     <use style="stroke:#000000;" x="85.081129" xlink:href="#mea8244864c" y="98.486493"/>
     <use style="stroke:#000000;" x="86.386448" xlink:href="#mea8244864c" y="97.818084"/>
     <use style="stroke:#000000;" x="87.691767" xlink:href="#mea8244864c" y="97.255049"/>
     <use style="stroke:#000000;" x="88.997086" xlink:href="#mea8244864c" y="96.581028"/>
     <use style="stroke:#000000;" x="90.302405" xlink:href="#mea8244864c" y="95.317473"/>
     <use style="stroke:#000000;" x="91.607724" xlink:href="#mea8244864c" y="94.554602"/>
     <use style="stroke:#000000;" x="92.913043" xlink:href="#mea8244864c" y="93.007035"/>
     <use style="stroke:#000000;" x="94.218362" xlink:href="#mea8244864c" y="91.948929"/>
     <use style="stroke:#000000;" x="95.523681" xlink:href="#mea8244864c" y="89.963654"/>
     <use style="stroke:#000000;" x="96.829" xlink:href="#mea8244864c" y="88.483115"/>
     <use style="stroke:#000000;" x="98.13432" xlink:href="#mea8244864c" y="85.480886"/>
     <use style="stroke:#000000;" x="99.439639" xlink:href="#mea8244864c" y="82.902336"/>
     <use style="stroke:#000000;" x="100.744958" xlink:href="#mea8244864c" y="80.42916"/>
     <use style="stroke:#000000;" x="102.050277" xlink:href="#mea8244864c" y="78.085987"/>
     <use style="stroke:#000000;" x="103.355596" xlink:href="#mea8244864c" y="75.942651"/>
     <use style="stroke:#000000;" x="104.660915" xlink:href="#mea8244864c" y="73.496598"/>
     <use style="stroke:#000000;" x="105.966234" xlink:href="#mea8244864c" y="71.012822"/>
     <use style="stroke:#000000;" x="107.271553" xlink:href="#mea8244864c" y="68.457966"/>
     <use style="stroke:#000000;" x="108.576872" xlink:href="#mea8244864c" y="65.980425"/>
     <use style="stroke:#000000;" x="109.882191" xlink:href="#mea8244864c" y="63.756344"/>
     <use style="stroke:#000000;" x="111.18751" xlink:href="#mea8244864c" y="61.583703"/>
     <use style="stroke:#000000;" x="112.492829" xlink:href="#mea8244864c" y="59.875893"/>
     <use style="stroke:#000000;" x="113.798148" xlink:href="#mea8244864c" y="58.308062"/>
     <use style="stroke:#000000;" x="115.103467" xlink:href="#mea8244864c" y="56.666033"/>
     <use style="stroke:#000000;" x="116.408786" xlink:href="#mea8244864c" y="54.708816"/>
     <use style="stroke:#000000;" x="117.714106" xlink:href="#mea8244864c" y="53.149403"/>
     <use style="stroke:#000000;" x="119.019425" xlink:href="#mea8244864c" y="51.574713"/>
     <use style="stroke:#000000;" x="120.324744" xlink:href="#mea8244864c" y="50.092616"/>
     <use style="stroke:#000000;" x="121.630063" xlink:href="#mea8244864c" y="48.906689"/>
     <use style="stroke:#000000;" x="122.935382" xlink:href="#mea8244864c" y="47.887864"/>
     <use style="stroke:#000000;" x="124.240701" xlink:href="#mea8244864c" y="47.126551"/>
     <use style="stroke:#000000;" x="125.54602" xlink:href="#mea8244864c" y="45.53565"/>
     <use style="stroke:#000000;" x="126.851339" xlink:href="#mea8244864c" y="43.25857"/>
     <use style="stroke:#000000;" x="128.156658" xlink:href="#mea8244864c" y="41.422003"/>
     <use style="stroke:#000000;" x="129.461977" xlink:href="#mea8244864c" y="41.145474"/>
     <use style="stroke:#000000;" x="130.767296" xlink:href="#mea8244864c" y="38.97938"/>
     <use style="stroke:#000000;" x="132.072615" xlink:href="#mea8244864c" y="38.500519"/>
     <use style="stroke:#000000;" x="133.377934" xlink:href="#mea8244864c" y="37.263464"/>
     <use style="stroke:#000000;" x="134.683253" xlink:href="#mea8244864c" y="35.950651"/>
     <use style="stroke:#000000;" x="135.988572" xlink:href="#mea8244864c" y="34.505653"/>
     <use style="stroke:#000000;" x="137.293892" xlink:href="#mea8244864c" y="37.633832"/>
     <use style="stroke:#000000;" x="138.599211" xlink:href="#mea8244864c" y="36.725058"/>
     <use style="stroke:#000000;" x="139.90453" xlink:href="#mea8244864c" y="36.186028"/>
     <use style="stroke:#000000;" x="141.209849" xlink:href="#mea8244864c" y="35.6152"/>
     <use style="stroke:#000000;" x="142.515168" xlink:href="#mea8244864c" y="35.20742"/>
     <use style="stroke:#000000;" x="143.820487" xlink:href="#mea8244864c" y="34.539011"/>
     <use style="stroke:#000000;" x="145.125806" xlink:href="#mea8244864c" y="34.37752"/>
     <use style="stroke:#000000;" x="146.431125" xlink:href="#mea8244864c" y="33.822279"/>
     <use style="stroke:#000000;" x="147.736444" xlink:href="#mea8244864c" y="33.396418"/>
     <use style="stroke:#000000;" x="149.041763" xlink:href="#mea8244864c" y="33.120824"/>
     <use style="stroke:#000000;" x="150.347082" xlink:href="#mea8244864c" y="32.950916"/>
     <use style="stroke:#000000;" x="151.652401" xlink:href="#mea8244864c" y="32.540019"/>
     <use style="stroke:#000000;" x="152.95772" xlink:href="#mea8244864c" y="32.229508"/>
     <use style="stroke:#000000;" x="154.263039" xlink:href="#mea8244864c" y="31.879716"/>
     <use style="stroke:#000000;" x="155.568358" xlink:href="#mea8244864c" y="31.440137"/>
     <use style="stroke:#000000;" x="156.873678" xlink:href="#mea8244864c" y="31.215359"/>
     <use style="stroke:#000000;" x="158.178997" xlink:href="#mea8244864c" y="30.974682"/>
     <use style="stroke:#000000;" x="159.484316" xlink:href="#mea8244864c" y="30.012597"/>
     <use style="stroke:#000000;" x="160.789635" xlink:href="#mea8244864c" y="29.827413"/>
     <use style="stroke:#000000;" x="162.094954" xlink:href="#mea8244864c" y="29.621341"/>
     <use style="stroke:#000000;" x="163.400273" xlink:href="#mea8244864c" y="29.356658"/>
     <use style="stroke:#000000;" x="164.705592" xlink:href="#mea8244864c" y="29.156198"/>
     <use style="stroke:#000000;" x="166.010911" xlink:href="#mea8244864c" y="28.995643"/>
     <use style="stroke:#000000;" x="167.31623" xlink:href="#mea8244864c" y="28.995643"/>
     <use style="stroke:#000000;" x="168.621549" xlink:href="#mea8244864c" y="28.712566"/>
    </g>
   </g>
   <g id="line2d_8">
    <path clip-path="url(#p56194c337a)" d="M 68.111981 100.85523 
L 69.4173 100.830018 
L 70.722619 100.798057 
L 72.027938 100.757556 
L 73.333257 100.706263 
L 74.638576 100.641347 
L 75.943895 100.559264 
L 77.249214 100.455587 
L 78.554534 100.324823 
L 79.859853 100.160184 
L 81.165172 99.953355 
L 82.470491 99.694249 
L 83.77581 99.370777 
L 85.081129 98.968685 
L 86.386448 98.471518 
L 87.691767 97.860788 
L 88.997086 97.11647 
L 90.302405 96.217929 
L 91.607724 95.145362 
L 92.913043 93.881778 
L 94.218362 92.415364 
L 95.523681 90.741932 
L 96.829 88.866924 
L 98.13432 86.806396 
L 99.439639 84.58653 
L 100.744958 82.241551 
L 102.050277 79.810439 
L 103.355596 77.333114 
L 104.660915 74.846979 
L 105.966234 72.384385 
L 107.271553 69.971295 
L 108.576872 67.627039 
L 109.882191 65.364857 
L 111.18751 63.192872 
L 112.492829 61.115192 
L 113.798148 59.13298 
L 115.103467 57.245377 
L 116.408786 55.450195 
L 117.714106 53.744463 
L 119.019425 52.124848 
L 120.324744 50.587866 
L 121.630063 49.130092 
L 122.935382 47.748253 
L 124.240701 46.439256 
L 125.54602 45.200217 
L 126.851339 44.028466 
L 128.156658 42.921507 
L 129.461977 41.877002 
L 130.767296 40.892721 
L 132.072615 39.966541 
L 133.377934 39.096382 
L 134.683253 38.280209 
L 135.988572 37.515995 
L 137.293892 36.8017 
L 138.599211 36.135279 
L 139.90453 35.514687 
L 141.209849 34.937829 
L 142.515168 34.402607 
L 143.820487 33.906929 
L 145.125806 33.448676 
L 146.431125 33.025757 
L 147.736444 32.636101 
L 149.041763 32.277669 
L 150.347082 31.948452 
L 151.652401 31.646522 
L 152.95772 31.369983 
L 154.263039 31.117039 
L 155.568358 30.885953 
L 156.873678 30.675079 
L 158.178997 30.482847 
L 159.484316 30.307793 
L 160.789635 30.148515 
L 162.094954 30.003729 
L 163.400273 29.872208 
L 164.705592 29.752824 
L 166.010911 29.64453 
L 167.31623 29.546356 
L 168.621549 29.457417 
L 169.926868 29.376862 
L 171.232187 29.303937 
L 172.537506 29.237957 
L 173.842825 29.178273 
L 175.148144 29.124311 
L 176.453464 29.075545 
L 177.758783 29.031477 
L 179.064102 28.991678 
L 180.369421 28.955721 
L 181.67474 28.923254 
L 182.980059 28.893945 
L 184.285378 28.867495 
L 185.590697 28.843621 
L 186.896016 28.822072 
L 188.201335 28.802633 
L 189.506654 28.785103 
L 190.811973 28.769286 
L 192.117292 28.755027 
L 193.422611 28.742159 
L 194.72793 28.730558 
L 196.03325 28.720092 
L 197.338569 28.710656 
" style="fill:none;stroke:#1f77b4;stroke-linecap:square;stroke-width:1.5;"/>
   </g>
   <g id="patch_3">
    <path d="M 61.650652 104.488647 
L 61.650652 25.10218 
" style="fill:none;stroke:#000000;stroke-linecap:square;stroke-linejoin:miter;stroke-width:0.8;"/>
   </g>
   <g id="patch_4">
    <path d="M 203.799898 104.488647 
L 203.799898 25.10218 
" style="fill:none;stroke:#000000;stroke-linecap:square;stroke-linejoin:miter;stroke-width:0.8;"/>
   </g>
   <g id="patch_5">
    <path d="M 61.650652 104.488647 
L 203.799898 104.488647 
" style="fill:none;stroke:#000000;stroke-linecap:square;stroke-linejoin:miter;stroke-width:0.8;"/>
   </g>
   <g id="patch_6">
    <path d="M 61.650652 25.10218 
L 203.799898 25.10218 
" style="fill:none;stroke:#000000;stroke-linecap:square;stroke-linejoin:miter;stroke-width:0.8;"/>
   </g>
   <g id="text_9">
    <!-- Identified system -->
    <defs>
     <path d="M 17.09375 69 
L 8.703125 69 
L 8.703125 0 
L 17.09375 0 
z
" id="CMSS17-73"/>
     <path d="M 40.796875 69 
L 33.40625 69 
L 33.40625 38.984375 
C 30.296875 41.59375 25.203125 44 19.59375 44 
C 10.5 44 3.296875 34.046875 3.296875 21.484375 
C 3.296875 8.9375 10.40625 -1 19.296875 -1 
C 26.203125 -1 30.796875 2.6875 33.203125 4.796875 
L 33.203125 -0.203125 
L 40.796875 -0.203125 
z
M 33.203125 13.296875 
C 33.203125 11.875 33.203125 10.359375 30.09375 7.625 
C 28.09375 5.90625 25.703125 5.09375 23.40625 5.09375 
C 18 5.09375 10.90625 9.140625 10.90625 21.390625 
C 10.90625 34.140625 18.90625 37.890625 24.40625 37.890625 
C 28.09375 37.890625 31.09375 36.0625 33.203125 33.03125 
z
" id="CMSS17-100"/>
     <path d="M 39.09375 21.484375 
C 39.09375 24.796875 38.90625 31.265625 35.703125 36.671875 
C 32.203125 42.390625 26.5 44 22.203125 44 
C 11.796875 44 3 34.125 3 21.296875 
C 3 9.046875 12.09375 -1 23.59375 -1 
C 28.09375 -1 33.59375 0.296875 38.59375 3.890625 
C 38.59375 4.296875 38.40625 6.46875 38.296875 6.578125 
C 38.296875 6.765625 38 9.828125 38 10.234375 
C 33.203125 6.375 27.703125 5.09375 23.703125 5.09375 
C 17.296875 5.09375 10.40625 10.421875 10.09375 21.484375 
z
M 10.90625 27 
C 12.203125 32.59375 16.59375 37.890625 22.203125 37.890625 
C 23.703125 37.890625 30.703125 37.6875 32.5 27 
z
" id="CMSS17-101"/>
     <path d="M 40.90625 29.34375 
C 40.90625 35.671875 39.40625 44 28.09375 44 
C 21.703125 44 17.5 40.6875 14.703125 37.28125 
L 14.703125 43.484375 
L 7.40625 43.484375 
L 7.40625 0 
L 15 0 
L 15 24.3125 
C 15 30.65625 17.40625 37.890625 24.203125 37.890625 
C 33 37.890625 33.296875 31.953125 33.296875 28.53125 
L 33.296875 0 
L 40.90625 0 
z
" id="CMSS17-110"/>
     <path d="M 16.703125 37.1875 
L 29.703125 37.1875 
L 29.703125 43 
L 16.703125 43 
L 16.703125 55 
L 9.59375 55 
L 9.59375 43 
L 1.703125 43 
L 1.703125 37.1875 
L 9.40625 37.1875 
L 9.40625 11.734375 
C 9.40625 6 10.703125 -1 17.296875 -1 
C 22.296875 -1 26.90625 0.390625 31.296875 2.6875 
L 29.703125 8.609375 
C 27.296875 6.5 24.40625 5.296875 21.296875 5.296875 
C 16.90625 5.296875 16.703125 10.921875 16.703125 13.4375 
z
" id="CMSS17-116"/>
     <path d="M 15.296875 66 
L 6.90625 66 
L 6.90625 57.59375 
L 15.296875 57.59375 
z
M 14.796875 43 
L 7.40625 43 
L 7.40625 0 
L 14.796875 0 
z
" id="CMSS17-105"/>
     <path d="M 43 70 
L 35 70 
L 35 61.984375 
L 43 61.984375 
z
M 42.703125 43 
L 35.296875 43 
L 35.296875 0 
L 42.703125 0 
z
M 16.796875 37.1875 
L 27.703125 37.1875 
L 27.703125 43 
L 16.59375 43 
L 16.59375 56.453125 
C 16.59375 61.890625 19 64.59375 22.203125 64.59375 
C 24.09375 64.59375 26 64.09375 27.703125 63.1875 
L 27.703125 69.890625 
C 26.90625 70.09375 24.59375 70.6875 22.203125 70.6875 
C 14.703125 70.6875 9.40625 63.09375 9.40625 53.15625 
L 9.40625 43 
L 2.5 43 
L 2.5 37.1875 
L 9.40625 37.1875 
L 9.40625 0 
L 16.796875 0 
z
" id="CMSS17-12"/>
     <path d="M 32.203125 40.984375 
C 26.296875 43.796875 21.703125 44 18.703125 44 
C 11.59375 44 3.09375 41.484375 3.09375 31.390625 
C 3.09375 21.296875 14.09375 19.09375 17.09375 18.484375 
C 21.703125 17.59375 26.796875 16.59375 26.796875 11.59375 
C 26.796875 5.296875 19.59375 5.296875 18.296875 5.296875 
C 14.296875 5.296875 8.796875 6.390625 3.796875 9.984375 
L 2.59375 3.296875 
C 8.296875 0 13.796875 -1 18.40625 -1 
C 30.703125 -1 33.796875 6.5 33.796875 12.1875 
C 33.796875 17.09375 31 20.390625 29.09375 21.890625 
C 25.796875 24.484375 24.59375 24.796875 16.40625 26.484375 
C 15 26.6875 10.09375 27.796875 10.09375 32.296875 
C 10.09375 37.984375 16.40625 37.984375 17.796875 37.984375 
C 24.296875 37.984375 28.296875 35.984375 31 34.484375 
z
" id="CMSS17-115"/>
     <path d="M 41.796875 43 
L 34 43 
C 25.5 20.203125 22.59375 10.953125 22.40625 5.984375 
L 22.296875 5.984375 
C 22 10.859375 17.59375 22.796875 14.09375 31.34375 
L 9.40625 43 
L 1.296875 43 
L 19 0.21875 
C 17.90625 -2.765625 16.296875 -7.25 15.796875 -8.234375 
C 13.59375 -13.8125 12.09375 -13.8125 10.5 -13.8125 
C 10.09375 -13.8125 6.90625 -13.703125 3.296875 -12.609375 
L 3.90625 -19.203125 
C 6.40625 -19.703125 8.90625 -20 10.703125 -20 
C 13.203125 -20 18.203125 -20 22.796875 -7.734375 
z
" id="CMSS17-121"/>
     <path d="M 67 29.34375 
C 67 36.078125 65.296875 44 54.09375 44 
C 46.59375 44 42.09375 39.296875 40.09375 36.375 
C 38.296875 41.6875 34.09375 44 28.09375 44 
C 21.296875 44 17 40.09375 14.703125 37.28125 
L 14.703125 43.484375 
L 7.40625 43.484375 
L 7.40625 0 
L 15 0 
L 15 24.3125 
C 15 30.25 17.203125 37.890625 24.296875 37.890625 
C 33.40625 37.890625 33.40625 31.453125 33.40625 28.53125 
L 33.40625 0 
L 41 0 
L 41 24.3125 
C 41 30.25 43.203125 37.890625 50.296875 37.890625 
C 59.40625 37.890625 59.40625 31.453125 59.40625 28.53125 
L 59.40625 0 
L 67 0 
z
" id="CMSS17-109"/>
    </defs>
    <g transform="translate(91.847119 19.10218)scale(0.12 -0.12)">
     <use transform="scale(0.996264)" xlink:href="#CMSS17-73"/>
     <use transform="translate(25.783926 0)scale(0.996264)" xlink:href="#CMSS17-100"/>
     <use transform="translate(73.988869 0)scale(0.996264)" xlink:href="#CMSS17-101"/>
     <use transform="translate(115.627691 0)scale(0.996264)" xlink:href="#CMSS17-110"/>
     <use transform="translate(163.832634 0)scale(0.996264)" xlink:href="#CMSS17-116"/>
     <use transform="translate(197.664201 0)scale(0.996264)" xlink:href="#CMSS17-105"/>
     <use transform="translate(219.844924 0)scale(0.996264)" xlink:href="#CMSS17-12"/>
     <use transform="translate(269.971661 0)scale(0.996264)" xlink:href="#CMSS17-101"/>
     <use transform="translate(311.610483 0)scale(0.996264)" xlink:href="#CMSS17-100"/>
     <use transform="translate(391.044539 0)scale(0.996264)" xlink:href="#CMSS17-115"/>
     <use transform="translate(426.958081 0)scale(0.996264)" xlink:href="#CMSS17-121"/>
     <use transform="translate(469.958222 0)scale(0.996264)" xlink:href="#CMSS17-115"/>
     <use transform="translate(505.871764 0)scale(0.996264)" xlink:href="#CMSS17-116"/>
     <use transform="translate(539.703331 0)scale(0.996264)" xlink:href="#CMSS17-101"/>
     <use transform="translate(581.342153 0)scale(0.996264)" xlink:href="#CMSS17-109"/>
    </g>
   </g>
   <g id="legend_1">
    <g id="patch_7">
     <path d="M 139.671869 99.488647 
L 196.799898 99.488647 
Q 198.799898 99.488647 198.799898 97.488647 
L 198.799898 84.551468 
Q 198.799898 82.551468 196.799898 82.551468 
L 139.671869 82.551468 
Q 137.671869 82.551468 137.671869 84.551468 
L 137.671869 97.488647 
Q 137.671869 99.488647 139.671869 99.488647 
z
" style="fill:#ffffff;opacity:0.8;stroke:#cccccc;stroke-linejoin:miter;"/>
    </g>
    <g id="line2d_9">
     <path d="M 141.671869 90.051468 
L 161.671869 90.051468 
" style="fill:none;stroke:#1f77b4;stroke-linecap:square;stroke-width:1.5;"/>
    </g>
    <g id="line2d_10"/>
    <g id="text_10">
     <!-- model -->
     <defs>
      <path d="M 44.203125 21.1875 
C 44.203125 33.984375 34.703125 44 23.5 44 
C 12 44 2.703125 33.6875 2.703125 21.1875 
C 2.703125 8.5 12.296875 -1 23.40625 -1 
C 34.796875 -1 44.203125 8.796875 44.203125 21.1875 
z
M 23.5 5.296875 
C 16.40625 5.296875 10.296875 11.09375 10.296875 21.984375 
C 10.296875 33.59375 17.40625 37.890625 23.40625 37.890625 
C 29.90625 37.890625 36.59375 33.1875 36.59375 21.984375 
C 36.59375 10.6875 30.09375 5.296875 23.5 5.296875 
z
" id="CMSS17-111"/>
      <path d="M 14.796875 69 
L 7.40625 69 
L 7.40625 0 
L 14.796875 0 
z
" id="CMSS17-108"/>
     </defs>
     <g transform="translate(169.671869 93.551468)scale(0.1 -0.1)">
      <use transform="scale(0.996264)" xlink:href="#CMSS17-109"/>
      <use transform="translate(74.229254 0)scale(0.996264)" xlink:href="#CMSS17-111"/>
      <use transform="translate(123.675317 0)scale(0.996264)" xlink:href="#CMSS17-100"/>
      <use transform="translate(171.88026 0)scale(0.996264)" xlink:href="#CMSS17-101"/>
      <use transform="translate(213.519082 0)scale(0.996264)" xlink:href="#CMSS17-108"/>
     </g>
    </g>
   </g>
  </g>
 </g>
 <defs>
  <clipPath id="p56194c337a">
   <rect height="79.386467" width="142.149246" x="61.650652" y="25.10218"/>
  </clipPath>
 </defs>
</svg>
