<?xml version="1.0" encoding="utf-8" standalone="no"?>
<!DOCTYPE svg PUBLIC "-//W3C//DTD SVG 1.1//EN"
  "http://www.w3.org/Graphics/SVG/1.1/DTD/svg11.dtd">
<!-- Created with matplotlib (https://matplotlib.org/) -->
<svg height="144pt" version="1.1" viewBox="0 0 216 144" width="216pt" xmlns="http://www.w3.org/2000/svg" xmlns:xlink="http://www.w3.org/1999/xlink">
 <defs>
  <style type="text/css">
*{stroke-linecap:butt;stroke-linejoin:round;}
  </style>
 </defs>
 <g id="figure_1">
  <g id="patch_1">
   <path d="M 0 144 
L 216 144 
L 216 0 
L 0 0 
z
" style="fill:#ffffff;"/>
  </g>
  <g id="axes_1">
   <g id="patch_2">
    <path d="M 61.650652 104.488647 
L 201.898594 104.488647 
L 201.898594 25.10218 
L 61.650652 25.10218 
z
" style="fill:#ffffff;"/>
   </g>
   <g id="matplotlib.axis_1">
    <g id="xtick_1">
     <g id="line2d_1">
      <defs>
       <path d="M 0 0 
L 0 3.5 
" id="m7d87b7376d" style="stroke:#000000;stroke-width:0.8;"/>
      </defs>
      <g>
       <use style="stroke:#000000;stroke-width:0.8;" x="68.025558" xlink:href="#m7d87b7376d" y="104.488647"/>
      </g>
     </g>
     <g id="text_1">
      <!-- $0$ -->
      <defs>
       <path d="M 42 31.84375 
C 42 37.96875 41.90625 48.421875 37.703125 56.453125 
C 34 63.484375 28.09375 66 22.90625 66 
C 18.09375 66 12 63.78125 8.203125 56.5625 
C 4.203125 49.015625 3.796875 39.671875 3.796875 31.84375 
C 3.796875 26.109375 3.90625 17.375 7 9.734375 
C 11.296875 -0.609375 19 -2 22.90625 -2 
C 27.5 -2 34.5 -0.109375 38.59375 9.4375 
C 41.59375 16.375 42 24.5 42 31.84375 
z
M 22.90625 -0.40625 
C 16.5 -0.40625 12.703125 5.125 11.296875 12.75 
C 10.203125 18.6875 10.203125 27.328125 10.203125 32.953125 
C 10.203125 40.6875 10.203125 47.109375 11.5 53.234375 
C 13.40625 61.78125 19 64.390625 22.90625 64.390625 
C 27 64.390625 32.296875 61.671875 34.203125 53.4375 
C 35.5 47.71875 35.59375 40.984375 35.59375 32.953125 
C 35.59375 26.421875 35.59375 18.375 34.40625 12.453125 
C 32.296875 1.5 26.40625 -0.40625 22.90625 -0.40625 
z
" id="CMR17-48"/>
      </defs>
      <g transform="translate(65.53489 118.407145)scale(0.1 -0.1)">
       <use transform="scale(0.996264)" xlink:href="#CMR17-48"/>
      </g>
     </g>
    </g>
    <g id="xtick_2">
     <g id="line2d_2">
      <g>
       <use style="stroke:#000000;stroke-width:0.8;" x="109.421055" xlink:href="#m7d87b7376d" y="104.488647"/>
      </g>
     </g>
     <g id="text_2">
      <!-- $25$ -->
      <defs>
       <path d="M 41.703125 15.46875 
L 39.90625 15.46875 
C 38.90625 8.390625 38.09375 7.1875 37.703125 6.59375 
C 37.203125 5.796875 30 5.796875 28.59375 5.796875 
L 9.40625 5.796875 
C 13 9.6875 20 16.765625 28.5 24.9375 
C 34.59375 30.71875 41.703125 37.5 41.703125 47.390625 
C 41.703125 59.1875 32.296875 66 21.796875 66 
C 10.796875 66 4.09375 56.296875 4.09375 47.296875 
C 4.09375 43.390625 7 42.890625 8.203125 42.890625 
C 9.203125 42.890625 12.203125 43.484375 12.203125 46.984375 
C 12.203125 50.09375 9.59375 51 8.203125 51 
C 7.59375 51 7 50.890625 6.59375 50.6875 
C 8.5 59.1875 14.296875 63.390625 20.40625 63.390625 
C 29.09375 63.390625 34.796875 56.5 34.796875 47.390625 
C 34.796875 38.703125 29.703125 31.21875 24 24.734375 
L 4.09375 2.296875 
L 4.09375 0 
L 39.296875 0 
z
" id="CMR17-50"/>
       <path d="M 11.40625 58.59375 
C 12.40625 58.1875 16.5 56.890625 20.703125 56.890625 
C 30 56.890625 35.09375 61.890625 38 64.6875 
C 38 65.484375 38 66 37.40625 66 
C 37.296875 66 37.09375 66 36.296875 65.59375 
C 32.796875 64.09375 28.703125 63 23.703125 63 
C 20.703125 63 16.203125 63.359375 11.296875 65.484375 
C 10.203125 66 10 66 9.90625 66 
C 9.40625 66 9.296875 65.890625 9.296875 63.90625 
L 9.296875 34.859375 
C 9.296875 33.015625 9.296875 32.5 10.296875 32.5 
C 10.796875 32.5 11 32.703125 11.5 33.421875 
C 14.703125 38.046875 19.09375 40 24.09375 40 
C 27.59375 40 35.09375 37.734375 35.09375 20.203125 
C 35.09375 16.984375 35.09375 11.1875 32.09375 6.59375 
C 29.59375 2.484375 25.703125 0.390625 21.40625 0.390625 
C 14.796875 0.390625 8.09375 4.984375 6.296875 12.6875 
C 6.703125 12.59375 7.5 12.390625 7.90625 12.390625 
C 9.203125 12.390625 11.703125 13.09375 11.703125 16.1875 
C 11.703125 18.890625 9.796875 20 7.90625 20 
C 5.59375 20 4.09375 18.59375 4.09375 15.796875 
C 4.09375 7.09375 11 -2 21.59375 -2 
C 31.90625 -2 41.703125 6.890625 41.703125 19.796875 
C 41.703125 32.09375 33.90625 41.59375 24.203125 41.59375 
C 19.09375 41.59375 14.796875 39.6875 11.40625 36 
z
" id="CMR17-53"/>
      </defs>
      <g transform="translate(104.439719 118.407145)scale(0.1 -0.1)">
       <use transform="scale(0.996264)" xlink:href="#CMR17-50"/>
       <use transform="translate(45.690477 0)scale(0.996264)" xlink:href="#CMR17-53"/>
      </g>
     </g>
    </g>
    <g id="xtick_3">
     <g id="line2d_3">
      <g>
       <use style="stroke:#000000;stroke-width:0.8;" x="150.816551" xlink:href="#m7d87b7376d" y="104.488647"/>
      </g>
     </g>
     <g id="text_3">
      <!-- $50$ -->
      <g transform="translate(145.835216 118.407145)scale(0.1 -0.1)">
       <use transform="scale(0.996264)" xlink:href="#CMR17-53"/>
       <use transform="translate(45.690477 0)scale(0.996264)" xlink:href="#CMR17-48"/>
      </g>
     </g>
    </g>
    <g id="xtick_4">
     <g id="line2d_4">
      <g>
       <use style="stroke:#000000;stroke-width:0.8;" x="192.212048" xlink:href="#m7d87b7376d" y="104.488647"/>
      </g>
     </g>
     <g id="text_4">
      <!-- $75$ -->
      <defs>
       <path d="M 45.09375 61.796875 
L 45.09375 64 
L 21.59375 64 
C 9.90625 64 9.703125 65.09375 9.296875 67 
L 7.5 67 
L 4.59375 48.5 
L 6.40625 48.5 
C 6.703125 50.40625 7.40625 55.5 8.59375 57.390625 
C 9.203125 58.1875 16.59375 58.1875 18.296875 58.1875 
L 40.296875 58.1875 
L 29.203125 41.71875 
C 21.796875 30.640625 16.703125 15.671875 16.703125 2.59375 
C 16.703125 1.390625 16.703125 -2 20.296875 -2 
C 23.90625 -2 23.90625 1.390625 23.90625 2.6875 
L 23.90625 7.28125 
C 23.90625 23.65625 26.703125 34.4375 31.296875 41.3125 
z
" id="CMR17-55"/>
      </defs>
      <g transform="translate(187.230712 118.407145)scale(0.1 -0.1)">
       <use transform="scale(0.996264)" xlink:href="#CMR17-55"/>
       <use transform="translate(45.690477 0)scale(0.996264)" xlink:href="#CMR17-53"/>
      </g>
     </g>
    </g>
    <g id="text_5">
     <!-- $t$ -->
     <defs>
      <path d="M 20.09375 40.09375 
L 29.296875 40.09375 
C 31.203125 40.09375 32.203125 40.09375 32.203125 41.890625 
C 32.203125 43 31.59375 43 29.59375 43 
L 20.796875 43 
L 24.5 57.25 
C 24.90625 58.625 24.90625 58.8125 24.90625 59.5 
C 24.90625 61.09375 23.59375 62 22.296875 62 
C 21.5 62 19.203125 61.6875 18.40625 58.53125 
L 14.5 43 
L 5.09375 43 
C 3.09375 43 2.203125 43 2.203125 41.09375 
C 2.203125 40.09375 2.90625 40.09375 4.796875 40.09375 
L 13.703125 40.09375 
L 7.09375 13.765625 
C 6.296875 10.265625 6 9.265625 6 7.96875 
C 6 3.28125 9.296875 -1 14.90625 -1 
C 25 -1 30.40625 13.5625 30.40625 14.265625 
C 30.40625 14.859375 30 15.15625 29.40625 15.15625 
C 29.203125 15.15625 28.796875 15.15625 28.59375 14.75 
C 28.5 14.65625 28.40625 14.5625 27.703125 12.96875 
C 25.59375 7.96875 21 1 15.203125 1 
C 12.203125 1 12 3.484375 12 5.6875 
C 12 5.78125 12 7.671875 12.296875 8.875 
z
" id="CMMI12-116"/>
     </defs>
     <g transform="translate(129.975811 131.262822)scale(0.1 -0.1)">
      <use transform="scale(0.996264)" xlink:href="#CMMI12-116"/>
     </g>
    </g>
   </g>
   <g id="matplotlib.axis_2">
    <g id="ytick_1">
     <g id="line2d_5">
      <defs>
       <path d="M 0 0 
L -3.5 0 
" id="m578f35e606" style="stroke:#000000;stroke-width:0.8;"/>
      </defs>
      <g>
       <use style="stroke:#000000;stroke-width:0.8;" x="61.650652" xlink:href="#m578f35e606" y="100.917583"/>
      </g>
     </g>
     <g id="text_6">
      <!-- $0$ -->
      <g transform="translate(49.669316 104.376832)scale(0.1 -0.1)">
       <use transform="scale(0.996264)" xlink:href="#CMR17-48"/>
      </g>
     </g>
    </g>
    <g id="ytick_2">
     <g id="line2d_6">
      <g>
       <use style="stroke:#000000;stroke-width:0.8;" x="61.650652" xlink:href="#m578f35e606" y="69.740961"/>
      </g>
     </g>
     <g id="text_7">
      <!-- $100000$ -->
      <defs>
       <path d="M 26.59375 63.796875 
C 26.59375 65.890625 26.5 66 25.09375 66 
C 21.203125 61.359375 15.296875 59.890625 9.703125 59.6875 
C 9.40625 59.6875 8.90625 59.6875 8.796875 59.5 
C 8.703125 59.296875 8.703125 59.09375 8.703125 57 
C 11.796875 57 17 57.59375 21 59.984375 
L 21 7.296875 
C 21 3.796875 20.796875 2.59375 12.203125 2.59375 
L 9.203125 2.59375 
L 9.203125 0 
C 14 0.09375 19 0.1875 23.796875 0.1875 
C 28.59375 0.1875 33.59375 0.09375 38.40625 0 
L 38.40625 2.59375 
L 35.40625 2.59375 
C 26.796875 2.59375 26.59375 3.6875 26.59375 7.296875 
z
" id="CMR17-49"/>
      </defs>
      <g transform="translate(24.76264 73.20021)scale(0.1 -0.1)">
       <use transform="scale(0.996264)" xlink:href="#CMR17-49"/>
       <use transform="translate(45.690477 0)scale(0.996264)" xlink:href="#CMR17-48"/>
       <use transform="translate(91.380954 0)scale(0.996264)" xlink:href="#CMR17-48"/>
       <use transform="translate(137.071431 0)scale(0.996264)" xlink:href="#CMR17-48"/>
       <use transform="translate(182.761908 0)scale(0.996264)" xlink:href="#CMR17-48"/>
       <use transform="translate(228.452386 0)scale(0.996264)" xlink:href="#CMR17-48"/>
      </g>
     </g>
    </g>
    <g id="ytick_3">
     <g id="line2d_7">
      <g>
       <use style="stroke:#000000;stroke-width:0.8;" x="61.650652" xlink:href="#m578f35e606" y="38.564339"/>
      </g>
     </g>
     <g id="text_8">
      <!-- $200000$ -->
      <g transform="translate(24.76264 42.023588)scale(0.1 -0.1)">
       <use transform="scale(0.996264)" xlink:href="#CMR17-50"/>
       <use transform="translate(45.690477 0)scale(0.996264)" xlink:href="#CMR17-48"/>
       <use transform="translate(91.380954 0)scale(0.996264)" xlink:href="#CMR17-48"/>
       <use transform="translate(137.071431 0)scale(0.996264)" xlink:href="#CMR17-48"/>
       <use transform="translate(182.761908 0)scale(0.996264)" xlink:href="#CMR17-48"/>
       <use transform="translate(228.452386 0)scale(0.996264)" xlink:href="#CMR17-48"/>
      </g>
     </g>
    </g>
    <g id="text_9">
     <!-- $\mathbf{x}(t)$ -->
     <defs>
      <path d="M 33.703125 24.46875 
L 45.296875 37.609375 
C 46.40625 38.90625 47.296875 39.6875 55.59375 39.6875 
L 55.59375 44 
C 50 43.796875 49.796875 43.796875 46.40625 43.796875 
C 43.5 43.796875 39.203125 43.796875 36.40625 44 
L 36.40625 39.6875 
C 38.296875 39.6875 40.40625 39.203125 40.40625 38.5 
C 40.40625 38.3125 39.90625 37.609375 39.703125 37.421875 
L 31 27.71875 
L 21.09375 39.6875 
L 25.296875 39.6875 
L 25.296875 44 
C 23 43.796875 16.203125 43.796875 13.5 43.796875 
C 10.5 43.796875 5.09375 43.796875 2.296875 44 
L 2.296875 39.6875 
L 9.40625 39.6875 
L 25 20.90625 
L 12 6.375 
C 10.796875 4.984375 10.09375 4.296875 1.796875 4.296875 
L 1.796875 0 
C 7.796875 0.1875 8 0.1875 11.09375 0.1875 
C 14 0.1875 18.203125 0.1875 21 0 
L 21 4.296875 
C 19.09375 4.296875 17 4.78125 17 5.484375 
C 17 5.578125 17 5.671875 17.703125 6.46875 
L 27.703125 17.640625 
L 38.796875 4.296875 
L 34.59375 4.296875 
L 34.59375 0 
C 37 0.1875 43.703125 0.1875 46.5 0.1875 
C 49.5 0.1875 54.796875 0.1875 57.59375 0 
L 57.59375 4.296875 
L 50.59375 4.296875 
z
" id="CMBX12-120"/>
      <path d="M 30.59375 -24.40625 
C 30.59375 -24.3125 30.59375 -24.109375 30.296875 -23.8125 
C 25.703125 -19.109375 13.40625 -6.296875 13.40625 24.9375 
C 13.40625 56.171875 25.5 68.875 30.40625 73.890625 
C 30.40625 73.984375 30.59375 74.1875 30.59375 74.484375 
C 30.59375 74.796875 30.296875 75 29.90625 75 
C 28.796875 75 20.296875 67.578125 15.40625 56.5625 
C 10.40625 45.453125 9 34.65625 9 25.046875 
C 9 17.828125 9.703125 5.625 15.703125 -7.296875 
C 20.5 -17.703125 28.703125 -25 29.90625 -25 
C 30.40625 -25 30.59375 -24.8125 30.59375 -24.40625 
z
" id="CMR17-40"/>
      <path d="M 26.296875 24.9375 
C 26.296875 32.140625 25.59375 44.359375 19.59375 57.265625 
C 14.796875 67.6875 6.59375 75 5.40625 75 
C 5.09375 75 4.703125 74.890625 4.703125 74.390625 
C 4.703125 74.1875 4.796875 74.09375 4.90625 73.890625 
C 9.703125 68.875 21.90625 56.171875 21.90625 25.046875 
C 21.90625 -6.1875 9.796875 -18.90625 4.90625 -23.90625 
C 4.796875 -24.109375 4.703125 -24.203125 4.703125 -24.40625 
C 4.703125 -24.90625 5.09375 -25 5.40625 -25 
C 6.5 -25 15 -17.609375 19.90625 -6.59375 
C 24.90625 4.515625 26.296875 15.328125 26.296875 24.9375 
z
" id="CMR17-41"/>
     </defs>
     <g transform="translate(18.27198 73.491965)rotate(-90)scale(0.1 -0.1)">
      <use transform="scale(0.996264)" xlink:href="#CMBX12-120"/>
      <use transform="translate(59.153176 0)scale(0.996264)" xlink:href="#CMR17-40"/>
      <use transform="translate(94.433943 0)scale(0.996264)" xlink:href="#CMMI12-116"/>
      <use transform="translate(129.660274 0)scale(0.996264)" xlink:href="#CMR17-41"/>
     </g>
    </g>
   </g>
   <g id="line2d_8">
    <defs>
     <path d="M 0 1.5 
C 0.397805 1.5 0.77937 1.341951 1.06066 1.06066 
C 1.341951 0.77937 1.5 0.397805 1.5 0 
C 1.5 -0.397805 1.341951 -0.77937 1.06066 -1.06066 
C 0.77937 -1.341951 0.397805 -1.5 0 -1.5 
C -0.397805 -1.5 -0.77937 -1.341951 -1.06066 -1.06066 
C -1.341951 -0.77937 -1.5 -0.397805 -1.5 0 
C -1.5 0.397805 -1.341951 0.77937 -1.06066 1.06066 
C -0.77937 1.341951 -0.397805 1.5 0 1.5 
z
" id="mef7c640b2f" style="stroke:#000000;"/>
    </defs>
    <g clip-path="url(#pff75245aa8)">
     <use style="stroke:#000000;" x="68.025558" xlink:href="#mef7c640b2f" y="100.880171"/>
     <use style="stroke:#000000;" x="69.681378" xlink:href="#mef7c640b2f" y="100.866141"/>
     <use style="stroke:#000000;" x="71.337198" xlink:href="#mef7c640b2f" y="100.848371"/>
     <use style="stroke:#000000;" x="72.993018" xlink:href="#mef7c640b2f" y="100.836835"/>
     <use style="stroke:#000000;" x="74.648838" xlink:href="#mef7c640b2f" y="100.792876"/>
     <use style="stroke:#000000;" x="76.304657" xlink:href="#mef7c640b2f" y="100.7617"/>
     <use style="stroke:#000000;" x="77.960477" xlink:href="#mef7c640b2f" y="100.707764"/>
     <use style="stroke:#000000;" x="79.616297" xlink:href="#mef7c640b2f" y="100.583058"/>
     <use style="stroke:#000000;" x="81.272117" xlink:href="#mef7c640b2f" y="100.389139"/>
     <use style="stroke:#000000;" x="82.927937" xlink:href="#mef7c640b2f" y="100.207691"/>
     <use style="stroke:#000000;" x="84.583757" xlink:href="#mef7c640b2f" y="100.207691"/>
     <use style="stroke:#000000;" x="86.239577" xlink:href="#mef7c640b2f" y="99.286422"/>
     <use style="stroke:#000000;" x="87.895396" xlink:href="#mef7c640b2f" y="98.925085"/>
     <use style="stroke:#000000;" x="89.551216" xlink:href="#mef7c640b2f" y="98.48643"/>
     <use style="stroke:#000000;" x="91.207036" xlink:href="#mef7c640b2f" y="97.818003"/>
     <use style="stroke:#000000;" x="92.862856" xlink:href="#mef7c640b2f" y="97.254953"/>
     <use style="stroke:#000000;" x="94.518676" xlink:href="#mef7c640b2f" y="96.580915"/>
     <use style="stroke:#000000;" x="96.174496" xlink:href="#mef7c640b2f" y="95.317326"/>
     <use style="stroke:#000000;" x="97.830316" xlink:href="#mef7c640b2f" y="94.554434"/>
     <use style="stroke:#000000;" x="99.486135" xlink:href="#mef7c640b2f" y="93.006827"/>
     <use style="stroke:#000000;" x="101.141955" xlink:href="#mef7c640b2f" y="91.948692"/>
     <use style="stroke:#000000;" x="102.797775" xlink:href="#mef7c640b2f" y="89.963365"/>
     <use style="stroke:#000000;" x="104.453595" xlink:href="#mef7c640b2f" y="88.482787"/>
     <use style="stroke:#000000;" x="106.109415" xlink:href="#mef7c640b2f" y="85.480478"/>
     <use style="stroke:#000000;" x="107.765235" xlink:href="#mef7c640b2f" y="82.90186"/>
     <use style="stroke:#000000;" x="109.421055" xlink:href="#mef7c640b2f" y="80.428619"/>
     <use style="stroke:#000000;" x="111.076874" xlink:href="#mef7c640b2f" y="78.085384"/>
     <use style="stroke:#000000;" x="112.732694" xlink:href="#mef7c640b2f" y="75.941991"/>
     <use style="stroke:#000000;" x="114.388514" xlink:href="#mef7c640b2f" y="73.495873"/>
     <use style="stroke:#000000;" x="116.044334" xlink:href="#mef7c640b2f" y="71.012032"/>
     <use style="stroke:#000000;" x="117.700154" xlink:href="#mef7c640b2f" y="68.457107"/>
     <use style="stroke:#000000;" x="119.355974" xlink:href="#mef7c640b2f" y="65.979501"/>
     <use style="stroke:#000000;" x="121.011794" xlink:href="#mef7c640b2f" y="63.755361"/>
     <use style="stroke:#000000;" x="122.667614" xlink:href="#mef7c640b2f" y="61.582662"/>
     <use style="stroke:#000000;" x="124.323433" xlink:href="#mef7c640b2f" y="59.874807"/>
     <use style="stroke:#000000;" x="125.979253" xlink:href="#mef7c640b2f" y="58.306935"/>
     <use style="stroke:#000000;" x="127.635073" xlink:href="#mef7c640b2f" y="56.664862"/>
     <use style="stroke:#000000;" x="129.290893" xlink:href="#mef7c640b2f" y="54.707594"/>
     <use style="stroke:#000000;" x="130.946713" xlink:href="#mef7c640b2f" y="53.148139"/>
     <use style="stroke:#000000;" x="132.602533" xlink:href="#mef7c640b2f" y="51.573408"/>
     <use style="stroke:#000000;" x="134.258353" xlink:href="#mef7c640b2f" y="50.091271"/>
     <use style="stroke:#000000;" x="135.914172" xlink:href="#mef7c640b2f" y="48.905312"/>
     <use style="stroke:#000000;" x="137.569992" xlink:href="#mef7c640b2f" y="47.88646"/>
     <use style="stroke:#000000;" x="139.225812" xlink:href="#mef7c640b2f" y="47.125127"/>
     <use style="stroke:#000000;" x="140.881632" xlink:href="#mef7c640b2f" y="45.534184"/>
     <use style="stroke:#000000;" x="142.537452" xlink:href="#mef7c640b2f" y="43.257044"/>
     <use style="stroke:#000000;" x="144.193272" xlink:href="#mef7c640b2f" y="41.420429"/>
     <use style="stroke:#000000;" x="145.849092" xlink:href="#mef7c640b2f" y="41.143892"/>
     <use style="stroke:#000000;" x="147.504911" xlink:href="#mef7c640b2f" y="38.977741"/>
     <use style="stroke:#000000;" x="149.160731" xlink:href="#mef7c640b2f" y="38.498868"/>
     <use style="stroke:#000000;" x="150.816551" xlink:href="#mef7c640b2f" y="37.261779"/>
     <use style="stroke:#000000;" x="152.472371" xlink:href="#mef7c640b2f" y="35.948932"/>
     <use style="stroke:#000000;" x="154.128191" xlink:href="#mef7c640b2f" y="34.503895"/>
     <use style="stroke:#000000;" x="155.784011" xlink:href="#mef7c640b2f" y="37.632158"/>
     <use style="stroke:#000000;" x="157.439831" xlink:href="#mef7c640b2f" y="36.723359"/>
     <use style="stroke:#000000;" x="159.09565" xlink:href="#mef7c640b2f" y="36.184315"/>
     <use style="stroke:#000000;" x="160.75147" xlink:href="#mef7c640b2f" y="35.613471"/>
     <use style="stroke:#000000;" x="162.40729" xlink:href="#mef7c640b2f" y="35.205681"/>
     <use style="stroke:#000000;" x="164.06311" xlink:href="#mef7c640b2f" y="34.537254"/>
     <use style="stroke:#000000;" x="165.71893" xlink:href="#mef7c640b2f" y="34.37576"/>
     <use style="stroke:#000000;" x="167.37475" xlink:href="#mef7c640b2f" y="33.820504"/>
     <use style="stroke:#000000;" x="169.03057" xlink:href="#mef7c640b2f" y="33.394631"/>
     <use style="stroke:#000000;" x="170.68639" xlink:href="#mef7c640b2f" y="33.11903"/>
     <use style="stroke:#000000;" x="172.342209" xlink:href="#mef7c640b2f" y="32.949117"/>
     <use style="stroke:#000000;" x="173.998029" xlink:href="#mef7c640b2f" y="32.538209"/>
     <use style="stroke:#000000;" x="175.653849" xlink:href="#mef7c640b2f" y="32.22769"/>
     <use style="stroke:#000000;" x="177.309669" xlink:href="#mef7c640b2f" y="31.877889"/>
     <use style="stroke:#000000;" x="178.965489" xlink:href="#mef7c640b2f" y="31.438298"/>
     <use style="stroke:#000000;" x="180.621309" xlink:href="#mef7c640b2f" y="31.213515"/>
     <use style="stroke:#000000;" x="182.277129" xlink:href="#mef7c640b2f" y="30.972831"/>
     <use style="stroke:#000000;" x="183.932948" xlink:href="#mef7c640b2f" y="30.010721"/>
     <use style="stroke:#000000;" x="185.588768" xlink:href="#mef7c640b2f" y="29.825532"/>
     <use style="stroke:#000000;" x="187.244588" xlink:href="#mef7c640b2f" y="29.619454"/>
     <use style="stroke:#000000;" x="188.900408" xlink:href="#mef7c640b2f" y="29.354765"/>
     <use style="stroke:#000000;" x="190.556228" xlink:href="#mef7c640b2f" y="29.154299"/>
     <use style="stroke:#000000;" x="192.212048" xlink:href="#mef7c640b2f" y="28.993739"/>
     <use style="stroke:#000000;" x="193.867868" xlink:href="#mef7c640b2f" y="28.993739"/>
     <use style="stroke:#000000;" x="195.523687" xlink:href="#mef7c640b2f" y="28.710656"/>
    </g>
   </g>
   <g id="patch_3">
    <path d="M 61.650652 104.488647 
L 61.650652 25.10218 
" style="fill:none;stroke:#000000;stroke-linecap:square;stroke-linejoin:miter;stroke-width:0.8;"/>
   </g>
   <g id="patch_4">
    <path d="M 201.898594 104.488647 
L 201.898594 25.10218 
" style="fill:none;stroke:#000000;stroke-linecap:square;stroke-linejoin:miter;stroke-width:0.8;"/>
   </g>
   <g id="patch_5">
    <path d="M 61.650652 104.488647 
L 201.898594 104.488647 
" style="fill:none;stroke:#000000;stroke-linecap:square;stroke-linejoin:miter;stroke-width:0.8;"/>
   </g>
   <g id="patch_6">
    <path d="M 61.650652 25.10218 
L 201.898594 25.10218 
" style="fill:none;stroke:#000000;stroke-linecap:square;stroke-linejoin:miter;stroke-width:0.8;"/>
   </g>
   <g id="text_10">
    <!-- Observed data -->
    <defs>
     <path d="M 64 34.390625 
C 64 55.328125 50.296875 71 34.59375 71 
C 18.90625 71 5.203125 55.234375 5.203125 34.390625 
C 5.203125 13.359375 19.09375 -2 34.59375 -2 
C 50.09375 -2 64 13.359375 64 34.390625 
z
M 34.59375 4.296875 
C 23.59375 4.296875 13.59375 16.671875 13.59375 35.703125 
C 13.59375 54.21875 24.203125 64.6875 34.59375 64.6875 
C 45 64.6875 55.59375 54.21875 55.59375 35.703125 
C 55.59375 16.578125 45.5 4.296875 34.59375 4.296875 
z
" id="CMSS17-79"/>
     <path d="M 14.90625 69 
L 7.5 69 
L 7.5 -0.203125 
L 15.09375 -0.203125 
L 15.09375 4.296875 
C 18.90625 0.59375 23.5 -1 27.59375 -1 
C 37.203125 -1 45 8.734375 45 21.59375 
C 45 33.328125 39 44 30.09375 44 
C 23.796875 44 18.203125 41.390625 14.90625 38.6875 
z
M 15.09375 32.734375 
C 17.296875 35.5625 20.40625 37.890625 24.796875 37.890625 
C 30.703125 37.890625 37.40625 33.53125 37.40625 21.59375 
C 37.40625 8.84375 29.40625 5.09375 23.90625 5.09375 
C 21.90625 5.09375 19.796875 5.59375 17.796875 7.3125 
C 15.09375 9.75 15.09375 11.265625 15.09375 12.6875 
z
" id="CMSS17-98"/>
     <path d="M 32.203125 40.984375 
C 26.296875 43.796875 21.703125 44 18.703125 44 
C 11.59375 44 3.09375 41.484375 3.09375 31.390625 
C 3.09375 21.296875 14.09375 19.09375 17.09375 18.484375 
C 21.703125 17.59375 26.796875 16.59375 26.796875 11.59375 
C 26.796875 5.296875 19.59375 5.296875 18.296875 5.296875 
C 14.296875 5.296875 8.796875 6.390625 3.796875 9.984375 
L 2.59375 3.296875 
C 8.296875 0 13.796875 -1 18.40625 -1 
C 30.703125 -1 33.796875 6.5 33.796875 12.1875 
C 33.796875 17.09375 31 20.390625 29.09375 21.890625 
C 25.796875 24.484375 24.59375 24.796875 16.40625 26.484375 
C 15 26.6875 10.09375 27.796875 10.09375 32.296875 
C 10.09375 37.984375 16.40625 37.984375 17.796875 37.984375 
C 24.296875 37.984375 28.296875 35.984375 31 34.484375 
z
" id="CMSS17-115"/>
     <path d="M 39.09375 21.484375 
C 39.09375 24.796875 38.90625 31.265625 35.703125 36.671875 
C 32.203125 42.390625 26.5 44 22.203125 44 
C 11.796875 44 3 34.125 3 21.296875 
C 3 9.046875 12.09375 -1 23.59375 -1 
C 28.09375 -1 33.59375 0.296875 38.59375 3.890625 
C 38.59375 4.296875 38.40625 6.46875 38.296875 6.578125 
C 38.296875 6.765625 38 9.828125 38 10.234375 
C 33.203125 6.375 27.703125 5.09375 23.703125 5.09375 
C 17.296875 5.09375 10.40625 10.421875 10.09375 21.484375 
z
M 10.90625 27 
C 12.203125 32.59375 16.59375 37.890625 22.203125 37.890625 
C 23.703125 37.890625 30.703125 37.6875 32.5 27 
z
" id="CMSS17-101"/>
     <path d="M 14.90625 21.390625 
C 14.90625 30.84375 21.796875 37.171875 30.59375 37.375 
L 30.59375 44 
C 24.203125 43.890625 18.203125 40.6875 14.59375 35.46875 
L 14.59375 43.484375 
L 7.5 43.484375 
L 7.5 0 
L 14.90625 0 
z
" id="CMSS17-114"/>
     <path d="M 41.796875 43 
L 34 43 
L 27.296875 24.296875 
C 25.203125 18.1875 22.203125 9.796875 21.703125 5.5 
L 21.59375 5.5 
C 21.40625 7.296875 20.59375 9.890625 20.09375 11.6875 
C 19.5 13.890625 18.703125 16.5 18.09375 18.296875 
L 9.296875 43 
L 1.296875 43 
L 17.09375 0 
L 26 0 
z
" id="CMSS17-118"/>
     <path d="M 40.796875 69 
L 33.40625 69 
L 33.40625 38.984375 
C 30.296875 41.59375 25.203125 44 19.59375 44 
C 10.5 44 3.296875 34.046875 3.296875 21.484375 
C 3.296875 8.9375 10.40625 -1 19.296875 -1 
C 26.203125 -1 30.796875 2.6875 33.203125 4.796875 
L 33.203125 -0.203125 
L 40.796875 -0.203125 
z
M 33.203125 13.296875 
C 33.203125 11.875 33.203125 10.359375 30.09375 7.625 
C 28.09375 5.90625 25.703125 5.09375 23.40625 5.09375 
C 18 5.09375 10.90625 9.140625 10.90625 21.390625 
C 10.90625 34.140625 18.90625 37.890625 24.40625 37.890625 
C 28.09375 37.890625 31.09375 36.0625 33.203125 33.03125 
z
" id="CMSS17-100"/>
     <path d="M 37.59375 27.953125 
C 37.59375 37.484375 30.90625 44 21.90625 44 
C 17.5 44 12.703125 43.1875 7.203125 39.984375 
L 7.796875 33.328125 
C 10.296875 35.15625 14.59375 38.09375 21.796875 38.09375 
C 26.90625 38.09375 30 34.140625 30 27.84375 
L 30 24 
C 14 23.5 4 18.890625 4 11.109375 
C 4 7.0625 6.5 -1 14.796875 -1 
C 16.296875 -1 24.40625 -0.8125 30.203125 3.5 
L 30.203125 -0.203125 
L 37.59375 -0.203125 
z
M 30 12.875 
C 30 11.109375 30 8.734375 27 6.96875 
C 24.40625 5.296875 21.09375 5.09375 19.703125 5.09375 
C 14.703125 5.09375 11.296875 7.859375 11.296875 11.296875 
C 11.296875 18.203125 26.90625 18.890625 30 19 
z
" id="CMSS17-97"/>
     <path d="M 16.703125 37.1875 
L 29.703125 37.1875 
L 29.703125 43 
L 16.703125 43 
L 16.703125 55 
L 9.59375 55 
L 9.59375 43 
L 1.703125 43 
L 1.703125 37.1875 
L 9.40625 37.1875 
L 9.40625 11.734375 
C 9.40625 6 10.703125 -1 17.296875 -1 
C 22.296875 -1 26.90625 0.390625 31.296875 2.6875 
L 29.703125 8.609375 
C 27.296875 6.5 24.40625 5.296875 21.296875 5.296875 
C 16.90625 5.296875 16.703125 10.921875 16.703125 13.4375 
z
" id="CMSS17-116"/>
    </defs>
    <g transform="translate(96.668493 19.10218)scale(0.12 -0.12)">
     <use transform="scale(0.996264)" xlink:href="#CMSS17-79"/>
     <use transform="translate(69.024255 0)scale(0.996264)" xlink:href="#CMSS17-98"/>
     <use transform="translate(117.229198 0)scale(0.996264)" xlink:href="#CMSS17-115"/>
     <use transform="translate(153.14274 0)scale(0.996264)" xlink:href="#CMSS17-101"/>
     <use transform="translate(194.781563 0)scale(0.996264)" xlink:href="#CMSS17-114"/>
     <use transform="translate(226.691335 0)scale(0.996264)" xlink:href="#CMSS17-118"/>
     <use transform="translate(269.691477 0)scale(0.996264)" xlink:href="#CMSS17-101"/>
     <use transform="translate(311.330299 0)scale(0.996264)" xlink:href="#CMSS17-100"/>
     <use transform="translate(390.764355 0)scale(0.996264)" xlink:href="#CMSS17-100"/>
     <use transform="translate(438.969298 0)scale(0.996264)" xlink:href="#CMSS17-97"/>
     <use transform="translate(483.891218 0)scale(0.996264)" xlink:href="#CMSS17-116"/>
     <use transform="translate(517.722785 0)scale(0.996264)" xlink:href="#CMSS17-97"/>
    </g>
   </g>
  </g>
 </g>
 <defs>
  <clipPath id="pff75245aa8">
   <rect height="79.386467" width="140.247942" x="61.650652" y="25.10218"/>
  </clipPath>
 </defs>
</svg>
